<svg width="2000px" height="1065px"
 viewBox="0.00 0.00 990.37 526.70" xmlns="http://www.w3.org/2000/svg" xmlns:xlink="http://www.w3.org/1999/xlink">
<g id="graph0" class="graph" transform="scale(1.0 1.0) rotate(0) translate(4 522.7)">
<title>ContextMapGraph</title>
<polygon fill="white" stroke="transparent" points="-4,4 -4,-522.7 986.37,-522.7 986.37,4 -4,4"/>
<!-- CataloggProductosContext -->
<g id="node1" class="node">
<title>CataloggProductosContext</title>
<polygon fill="none" stroke="black" stroke-width="2" points="307.28,-436.39 317.2,-437.98 326.78,-439.66 335.96,-441.43 344.72,-443.26 353.02,-445.17 360.82,-447.15 368.09,-449.17 374.8,-451.25 380.92,-453.37 386.43,-455.53 391.31,-457.71 395.54,-459.92 399.11,-462.14 402,-464.38 404.21,-466.61 405.73,-468.85 406.57,-471.07 406.71,-473.28 406.18,-475.48 404.97,-477.65 403.1,-479.79 400.59,-481.89 397.45,-483.96 393.7,-485.99 389.36,-487.97 384.47,-489.91 379.04,-491.79 373.11,-493.61 366.71,-495.37 359.87,-497.08 352.62,-498.72 345,-500.29 337.04,-501.79 328.77,-503.22 320.24,-504.57 311.48,-505.85 302.52,-507.05 293.39,-508.17 284.13,-509.2 274.78,-510.15 265.36,-511.02 255.91,-511.79 246.45,-512.48 237.01,-513.08 227.61,-513.58 218.29,-513.99 209.06,-514.3 199.95,-514.51 190.97,-514.63 182.14,-514.64 173.47,-514.56 164.99,-514.37 156.7,-514.08 148.61,-513.68 140.74,-513.18 133.09,-512.57 125.66,-511.86 118.47,-511.04 111.53,-510.12 104.82,-509.09 98.37,-507.96 92.16,-506.73 86.21,-505.4 80.52,-503.97 75.1,-502.44 69.93,-500.81 65.03,-499.1 60.41,-497.3 56.05,-495.42 51.98,-493.45 48.2,-491.41 44.7,-489.3 41.51,-487.13 38.61,-484.9 36.03,-482.61 33.78,-480.28 31.85,-477.91 30.26,-475.5 29.02,-473.08 28.15,-470.63 27.65,-468.17 27.53,-465.72 27.8,-463.27 28.48,-460.83 29.58,-458.42 31.1,-456.04 33.06,-453.7 35.47,-451.41 38.33,-449.17 41.64,-447 45.43,-444.9 49.68,-442.89 54.4,-440.96 59.6,-439.12 65.26,-437.38 71.39,-435.76 77.98,-434.24 85.03,-432.85 92.51,-431.58 100.42,-430.44 108.74,-429.42 117.46,-428.55 126.55,-427.81 135.99,-427.22 145.76,-426.76 155.82,-426.45 166.14,-426.29 176.69,-426.26 187.45,-426.38 198.36,-426.65 209.4,-427.05 220.51,-427.59 231.67,-428.26 242.83,-429.06 253.94,-429.99 264.96,-431.05 275.85,-432.22 286.56,-433.51 297.05,-434.9 307.28,-436.39"/>
<text text-anchor="middle" x="203.4" y="-468.59" font-family="sans-serif" font-size="16.00">CataloggProductosContext</text>
</g>
<!-- GestionOrdenesContext -->
<g id="node2" class="node">
<title>GestionOrdenesContext</title>
<polygon fill="none" stroke="black" stroke-width="2" points="40.94,-339.32 38.07,-336.54 35.66,-333.75 33.73,-330.95 32.29,-328.17 31.35,-325.4 30.9,-322.67 30.97,-319.97 31.55,-317.33 32.64,-314.75 34.24,-312.24 36.35,-309.8 38.97,-307.45 42.09,-305.2 45.7,-303.04 49.79,-300.99 54.35,-299.05 59.37,-297.22 64.83,-295.52 70.72,-293.93 77.01,-292.47 83.69,-291.14 90.73,-289.94 98.11,-288.86 105.8,-287.91 113.79,-287.09 122.04,-286.39 130.52,-285.82 139.21,-285.37 148.09,-285.05 157.11,-284.83 166.25,-284.74 175.47,-284.75 184.76,-284.87 194.08,-285.09 203.39,-285.41 212.67,-285.82 221.89,-286.33 231.03,-286.93 240.04,-287.6 248.91,-288.36 257.61,-289.19 266.11,-290.1 274.39,-291.08 282.43,-292.12 290.2,-293.22 297.68,-294.39 304.86,-295.61 311.71,-296.89 318.22,-298.23 324.37,-299.61 330.16,-301.05 335.56,-302.54 340.56,-304.07 345.17,-305.66 349.36,-307.28 353.13,-308.96 356.48,-310.67 359.41,-312.43 361.9,-314.24 363.96,-316.08 365.59,-317.96 366.79,-319.88 367.56,-321.84 367.9,-323.83 367.82,-325.85 367.31,-327.9 366.4,-329.98 365.07,-332.08 363.35,-334.21 361.23,-336.35 358.72,-338.5 355.84,-340.65 352.59,-342.81 348.98,-344.97 345.02,-347.12 340.72,-349.25 336.09,-351.36 331.15,-353.44 325.9,-355.48 320.36,-357.48 314.53,-359.43 308.44,-361.32 302.09,-363.14 295.49,-364.88 288.67,-366.54 281.63,-368.11 274.39,-369.58 266.96,-370.94 259.36,-372.19 251.6,-373.32 243.71,-374.31 235.69,-375.18 227.56,-375.9 219.35,-376.47 211.06,-376.89 202.73,-377.16 194.36,-377.27 185.97,-377.21 177.59,-377 169.24,-376.61 160.93,-376.06 152.7,-375.35 144.55,-374.47 136.51,-373.43 128.61,-372.23 120.86,-370.87 113.29,-369.36 105.93,-367.71 98.78,-365.91 91.88,-363.99 85.24,-361.93 78.9,-359.76 72.86,-357.49 67.16,-355.11 61.8,-352.64 56.82,-350.09 52.23,-347.48 48.04,-344.8 44.27,-342.08 40.94,-339.32"/>
<text text-anchor="middle" x="203.4" y="-324.59" font-family="sans-serif" font-size="16.00">GestionOrdenesContext</text>
</g>
<!-- CataloggProductosContext&#45;&gt;GestionOrdenesContext -->
<g id="edge1" class="edge">
<title>CataloggProductosContext&#45;&gt;GestionOrdenesContext</title>
<path fill="none" stroke="black" stroke-width="2" d="M203.4,-426.46C203.4,-410.86 203.4,-393.31 203.4,-377.46"/>
<text text-anchor="middle" x="278.9" y="-398.48" font-family="sans-serif" font-size="12.00"> &#160;&#160;&#160;&#160;&#160;&#160;&#160;&#160;&#160;&#160;&#160;&#160;&#160;&#160;&#160;&#160;&#160;&#160;&#160;&#160;&#160;&#160;&#160;&#160;&#160;&#160;&#160;&#160;&#160;&#160;&#160;&#160;&#160;&#160;&#160;&#160;&#160;&#160;&#160;</text>
<polygon fill="white" stroke="transparent" points="196.4,-368.46 196.4,-385.46 210.4,-385.46 210.4,-368.46 196.4,-368.46"/>
<text text-anchor="start" x="198.4" y="-373.86" font-family="sans-serif" font-size="12.00">D</text>
<polygon fill="white" stroke="transparent" points="179.4,-416.46 179.4,-435.46 195.4,-435.46 195.4,-416.46 179.4,-416.46"/>
<polyline fill="none" stroke="black" points="195.4,-416.46 195.4,-435.46 "/>
<text text-anchor="start" x="182.4" y="-422.86" font-family="sans-serif" font-size="12.00">U</text>
<polygon fill="white" stroke="transparent" points="195.4,-416.46 195.4,-435.46 228.4,-435.46 228.4,-416.46 195.4,-416.46"/>
<polygon fill="none" stroke="black" points="195.4,-416.46 195.4,-435.46 228.4,-435.46 228.4,-416.46 195.4,-416.46"/>
<text text-anchor="start" x="198.4" y="-422.86" font-family="sans-serif" font-size="12.00">OHS</text>
</g>
<!-- GestionClientesContext -->
<g id="node3" class="node">
<title>GestionClientesContext</title>
<polygon fill="none" stroke="black" stroke-width="2" points="664.47,-226.48 654.02,-227.24 643.53,-227.87 633.04,-228.38 622.58,-228.76 612.19,-229 601.92,-229.12 591.81,-229.1 581.88,-228.95 572.19,-228.67 562.75,-228.24 553.61,-227.69 544.79,-227 536.32,-226.18 528.22,-225.23 520.52,-224.15 513.24,-222.95 506.39,-221.63 499.98,-220.19 494.03,-218.65 488.56,-216.99 483.55,-215.23 479.03,-213.38 474.99,-211.44 471.42,-209.42 468.34,-207.31 465.73,-205.14 463.58,-202.91 461.9,-200.62 460.66,-198.29 459.87,-195.92 459.5,-193.51 459.55,-191.08 459.99,-188.64 460.82,-186.19 462.03,-183.74 463.59,-181.3 465.49,-178.87 467.72,-176.47 470.27,-174.1 473.11,-171.76 476.24,-169.47 479.64,-167.24 483.31,-165.06 487.22,-162.94 491.36,-160.9 495.74,-158.93 500.34,-157.04 505.14,-155.24 510.16,-153.53 515.36,-151.91 520.76,-150.39 526.34,-148.97 532.11,-147.65 538.05,-146.44 544.16,-145.34 550.45,-144.34 556.89,-143.46 563.5,-142.69 570.27,-142.04 577.19,-141.49 584.25,-141.06 591.46,-140.75 598.81,-140.55 606.28,-140.46 613.87,-140.48 621.58,-140.61 629.38,-140.85 637.28,-141.2 645.25,-141.66 653.28,-142.21 661.36,-142.87 669.46,-143.63 677.57,-144.49 685.67,-145.44 693.73,-146.48 701.73,-147.61 709.65,-148.83 717.46,-150.13 725.13,-151.51 732.63,-152.97 739.95,-154.5 747.03,-156.1 753.87,-157.77 760.42,-159.51 766.66,-161.3 772.55,-163.16 778.07,-165.06 783.18,-167.02 787.87,-169.01 792.1,-171.06 795.84,-173.13 799.08,-175.24 801.78,-177.38 803.94,-179.54 805.53,-181.72 806.53,-183.91 806.93,-186.12 806.73,-188.32 805.91,-190.53 804.47,-192.72 802.41,-194.91 799.72,-197.08 796.42,-199.22 792.51,-201.34 788,-203.41 782.91,-205.45 777.24,-207.44 771.03,-209.38 764.3,-211.26 757.06,-213.08 749.36,-214.82 741.21,-216.49 732.65,-218.08 723.72,-219.58 714.46,-220.99 704.89,-222.3 695.07,-223.51 685.03,-224.61 674.82,-225.6 664.47,-226.48"/>
<text text-anchor="middle" x="623.4" y="-179.94" font-family="sans-serif" font-size="16.00">GestionClientesContext</text>
</g>
<!-- GestionOrdenesContext&#45;&gt;GestionClientesContext -->
<g id="edge2" class="edge">
<title>GestionOrdenesContext&#45;&gt;GestionClientesContext</title>
<path fill="none" stroke="black" stroke-width="2" d="M299.76,-294.66C362.85,-273.23 445.52,-245.15 511.52,-222.74"/>
<text text-anchor="middle" x="459.9" y="-252.1" font-family="sans-serif" font-size="12.00">Partnership</text>
</g>
<!-- GestionPagosContext -->
<g id="node5" class="node">
<title>GestionPagosContext</title>
<polygon fill="none" stroke="black" stroke-width="2" points="51.89,-177.9 53.07,-175.05 54.66,-172.23 56.66,-169.47 59.06,-166.75 61.85,-164.11 65.03,-161.54 68.58,-159.06 72.5,-156.68 76.78,-154.4 81.39,-152.24 86.34,-150.2 91.6,-148.29 97.17,-146.51 103.02,-144.88 109.14,-143.39 115.52,-142.04 122.13,-140.85 128.96,-139.81 135.99,-138.93 143.2,-138.2 150.58,-137.62 158.09,-137.2 165.73,-136.93 173.46,-136.81 181.28,-136.84 189.16,-137 197.07,-137.31 205,-137.75 212.93,-138.31 220.83,-139 228.68,-139.81 236.46,-140.72 244.16,-141.74 251.74,-142.86 259.2,-144.07 266.51,-145.36 273.64,-146.74 280.59,-148.18 287.33,-149.69 293.84,-151.26 300.11,-152.88 306.12,-154.55 311.86,-156.26 317.3,-158.01 322.43,-159.79 327.24,-161.6 331.72,-163.44 335.84,-165.29 339.61,-167.16 343.01,-169.04 346.04,-170.94 348.67,-172.84 350.91,-174.75 352.74,-176.66 354.17,-178.57 355.19,-180.49 355.79,-182.4 355.98,-184.31 355.75,-186.22 355.1,-188.12 354.03,-190.02 352.55,-191.91 350.66,-193.79 348.36,-195.66 345.67,-197.52 342.58,-199.36 339.1,-201.19 335.26,-203 331.04,-204.79 326.47,-206.56 321.56,-208.3 316.32,-210 310.77,-211.68 304.92,-213.31 298.78,-214.91 292.38,-216.45 285.73,-217.95 278.85,-219.38 271.76,-220.75 264.48,-222.05 257.03,-223.28 249.43,-224.42 241.7,-225.48 233.86,-226.44 225.93,-227.31 217.94,-228.06 209.92,-228.71 201.87,-229.24 193.82,-229.65 185.81,-229.92 177.84,-230.07 169.94,-230.08 162.14,-229.95 154.45,-229.67 146.9,-229.25 139.5,-228.68 132.29,-227.96 125.27,-227.09 118.47,-226.06 111.91,-224.89 105.6,-223.57 99.57,-222.1 93.82,-220.49 88.38,-218.74 83.26,-216.86 78.48,-214.85 74.04,-212.71 69.96,-210.46 66.25,-208.11 62.92,-205.65 59.97,-203.11 57.43,-200.48 55.29,-197.79 53.55,-195.03 52.23,-192.23 51.32,-189.39 50.84,-186.53 50.77,-183.65 51.12,-180.77 51.89,-177.9"/>
<text text-anchor="middle" x="203.4" y="-179.94" font-family="sans-serif" font-size="16.00">GestionPagosContext</text>
</g>
<!-- GestionOrdenesContext&#45;&gt;GestionPagosContext -->
<g id="edge3" class="edge">
<title>GestionOrdenesContext&#45;&gt;GestionPagosContext</title>
<path fill="none" stroke="black" stroke-width="2" d="M203.4,-285.36C203.4,-267.69 203.4,-247.12 203.4,-229.19"/>
<text text-anchor="middle" x="237.9" y="-252.1" font-family="sans-serif" font-size="12.00">Partnership</text>
</g>
<!-- GestionEnviosContext -->
<g id="node4" class="node">
<title>GestionEnviosContext</title>
<polygon fill="none" stroke="black" stroke-width="2" points="616.14,-87.66 605.86,-87.57 595.66,-87.36 585.58,-87.03 575.67,-86.58 565.97,-86.01 556.51,-85.33 547.33,-84.53 538.47,-83.62 529.95,-82.6 521.81,-81.47 514.08,-80.23 506.77,-78.9 499.93,-77.46 493.56,-75.93 487.68,-74.31 482.31,-72.61 477.45,-70.83 473.13,-68.97 469.34,-67.03 466.08,-65.04 463.36,-62.98 461.18,-60.87 459.53,-58.72 458.41,-56.52 457.79,-54.28 457.68,-52.02 458.06,-49.73 458.92,-47.43 460.23,-45.12 461.98,-42.8 464.16,-40.49 466.73,-38.19 469.69,-35.9 473,-33.64 476.65,-31.41 480.62,-29.21 484.89,-27.05 489.42,-24.94 494.21,-22.88 499.23,-20.89 504.46,-18.96 509.89,-17.09 515.5,-15.31 521.26,-13.6 527.16,-11.98 533.2,-10.45 539.35,-9.01 545.6,-7.67 551.94,-6.43 558.37,-5.3 564.86,-4.27 571.42,-3.35 578.04,-2.55 584.71,-1.86 591.42,-1.28 598.17,-0.83 604.95,-0.49 611.76,-0.27 618.6,-0.17 625.46,-0.19 632.33,-0.33 639.21,-0.59 646.1,-0.96 652.99,-1.46 659.87,-2.06 666.74,-2.79 673.59,-3.62 680.41,-4.56 687.18,-5.61 693.9,-6.76 700.56,-8.01 707.13,-9.36 713.62,-10.8 719.99,-12.33 726.23,-13.94 732.33,-15.63 738.26,-17.4 744,-19.24 749.54,-21.15 754.84,-23.11 759.89,-25.13 764.66,-27.2 769.13,-29.32 773.28,-31.48 777.08,-33.66 780.5,-35.88 783.53,-38.11 786.15,-40.37 788.32,-42.63 790.04,-44.89 791.27,-47.16 792.01,-49.41 792.24,-51.65 791.95,-53.87 791.12,-56.06 789.74,-58.22 787.81,-60.35 785.32,-62.43 782.28,-64.46 778.68,-66.43 774.52,-68.35 769.82,-70.2 764.58,-71.98 758.82,-73.69 752.55,-75.31 745.79,-76.85 738.56,-78.31 730.89,-79.67 722.8,-80.93 714.33,-82.1 705.5,-83.16 696.35,-84.11 686.91,-84.96 677.22,-85.69 667.33,-86.32 657.26,-86.82 647.07,-87.21 636.79,-87.48 626.47,-87.63 616.14,-87.66"/>
<text text-anchor="middle" x="623.4" y="-40.09" font-family="sans-serif" font-size="16.00">GestionEnviosContext</text>
</g>
<!-- GestionClientesContext&#45;&gt;GestionEnviosContext -->
<g id="edge4" class="edge">
<title>GestionClientesContext&#45;&gt;GestionEnviosContext</title>
<path fill="none" stroke="black" stroke-width="2" d="M623.4,-140.63C623.4,-123.84 623.4,-104.54 623.4,-87.69"/>
<text text-anchor="middle" x="657.9" y="-109.17" font-family="sans-serif" font-size="12.00">Partnership</text>
</g>
<!-- GesionAutorizacionAunteticacionContext -->
<g id="node6" class="node">
<title>GesionAutorizacionAunteticacionContext</title>
<polygon fill="none" stroke="black" stroke-width="2" points="546.21,-291.34 560.73,-289.77 575.56,-288.32 590.63,-286.98 605.89,-285.76 621.27,-284.68 636.73,-283.73 652.19,-282.92 667.62,-282.25 682.95,-281.72 698.13,-281.35 713.11,-281.13 727.85,-281.06 742.31,-281.14 756.43,-281.38 770.18,-281.76 783.53,-282.3 796.45,-282.99 808.89,-283.82 820.85,-284.8 832.29,-285.92 843.19,-287.17 853.54,-288.55 863.32,-290.05 872.53,-291.68 881.15,-293.41 889.17,-295.25 896.59,-297.18 903.42,-299.21 909.65,-301.31 915.28,-303.49 920.32,-305.73 924.77,-308.03 928.63,-310.38 931.92,-312.76 934.65,-315.18 936.81,-317.62 938.42,-320.06 939.48,-322.52 940.02,-324.97 940.02,-327.41 939.5,-329.83 938.48,-332.22 936.94,-334.58 934.91,-336.9 932.38,-339.17 929.37,-341.39 925.87,-343.55 921.89,-345.65 917.43,-347.68 912.49,-349.63 907.09,-351.51 901.21,-353.31 894.87,-355.03 888.06,-356.66 880.78,-358.21 873.04,-359.66 864.84,-361.02 856.19,-362.29 847.09,-363.46 837.54,-364.54 827.56,-365.52 817.14,-366.41 806.31,-367.2 795.08,-367.9 783.45,-368.5 771.44,-369.01 759.08,-369.42 746.39,-369.73 733.38,-369.96 720.09,-370.09 706.54,-370.12 692.76,-370.07 678.79,-369.93 664.67,-369.69 650.43,-369.37 636.12,-368.95 621.77,-368.45 607.43,-367.86 593.16,-367.18 578.99,-366.42 564.98,-365.57 551.18,-364.63 537.64,-363.61 524.41,-362.51 511.56,-361.32 499.12,-360.05 487.15,-358.7 475.71,-357.27 464.84,-355.76 454.59,-354.18 445.01,-352.52 436.15,-350.79 428.04,-349 420.73,-347.13 414.25,-345.2 408.64,-343.21 403.92,-341.16 400.13,-339.06 397.28,-336.9 395.38,-334.71 394.46,-332.47 394.53,-330.21 395.58,-327.91 397.61,-325.59 400.62,-323.26 404.6,-320.91 409.54,-318.57 415.41,-316.23 422.18,-313.9 429.85,-311.59 438.36,-309.31 447.69,-307.06 457.79,-304.86 468.62,-302.71 480.14,-300.62 492.29,-298.6 505.03,-296.65 518.3,-294.79 532.04,-293.02 546.21,-291.34"/>
<text text-anchor="middle" x="688.4" y="-324.59" font-family="sans-serif" font-size="16.00">GesionAutorizacionAunteticacionContext</text>
</g>
<!-- GesionAutorizacionAunteticacionContext&#45;&gt;GestionClientesContext -->
<g id="edge5" class="edge">
<title>GesionAutorizacionAunteticacionContext&#45;&gt;GestionClientesContext</title>
<path fill="none" stroke="black" stroke-width="2" d="M667.66,-281.86C659.86,-264.74 651.01,-245.32 643.29,-228.37"/>
<text text-anchor="middle" x="732.9" y="-252.1" font-family="sans-serif" font-size="12.00"> &#160;&#160;&#160;&#160;&#160;&#160;&#160;&#160;&#160;&#160;&#160;&#160;&#160;&#160;&#160;&#160;&#160;&#160;&#160;&#160;&#160;&#160;&#160;&#160;&#160;&#160;&#160;&#160;&#160;&#160;&#160;&#160;&#160;&#160;&#160;&#160;&#160;&#160;&#160;</text>
<polygon fill="white" stroke="transparent" points="624.29,-218.37 624.29,-237.37 640.29,-237.37 640.29,-218.37 624.29,-218.37"/>
<polyline fill="none" stroke="black" points="640.29,-218.37 640.29,-237.37 "/>
<text text-anchor="start" x="627.29" y="-224.77" font-family="sans-serif" font-size="12.00">D</text>
<polygon fill="white" stroke="transparent" points="640.29,-218.37 640.29,-237.37 662.29,-237.37 662.29,-218.37 640.29,-218.37"/>
<polygon fill="none" stroke="black" points="640.29,-218.37 640.29,-237.37 662.29,-237.37 662.29,-218.37 640.29,-218.37"/>
<text text-anchor="start" x="643.29" y="-224.77" font-family="sans-serif" font-size="12.00">CF</text>
<polygon fill="white" stroke="transparent" points="649.66,-271.86 649.66,-290.86 665.66,-290.86 665.66,-271.86 649.66,-271.86"/>
<polyline fill="none" stroke="black" points="665.66,-271.86 665.66,-290.86 "/>
<text text-anchor="start" x="652.66" y="-278.26" font-family="sans-serif" font-size="12.00">U</text>
<polygon fill="white" stroke="transparent" points="665.66,-271.86 665.66,-290.86 686.66,-290.86 686.66,-271.86 665.66,-271.86"/>
<polygon fill="none" stroke="black" points="665.66,-271.86 665.66,-290.86 686.66,-290.86 686.66,-271.86 665.66,-271.86"/>
<text text-anchor="start" x="668.66" y="-278.26" font-family="sans-serif" font-size="12.00">PL</text>
</g>
</g>
</svg>
